<svg width="160" height="161" viewBox="0 0 160 161" fill="none" xmlns="http://www.w3.org/2000/svg">
<rect width="160" height="160.476" rx="32" fill="#121111"/>
<path d="M39.0909 64.8535V95.6227C39.0909 96.6428 38.612 97.6211 37.7596 98.3424C36.9071 99.0637 35.751 99.4689 34.5455 99.4689C33.3399 99.4689 32.1838 99.0637 31.3313 98.3424C30.4789 97.6211 30 96.6428 30 95.6227V64.8535C30 63.8334 30.4789 62.8551 31.3313 62.1338C32.1838 61.4125 33.3399 61.0073 34.5455 61.0073C35.751 61.0073 36.9071 61.4125 37.7596 62.1338C38.612 62.8551 39.0909 63.8334 39.0909 64.8535ZM57.2727 30.2381C56.0672 30.2381 54.911 30.6433 54.0586 31.3646C53.2062 32.0859 52.7273 33.0642 52.7273 34.0843V126.392C52.7273 127.412 53.2062 128.39 54.0586 129.112C54.911 129.833 56.0672 130.238 57.2727 130.238C58.4783 130.238 59.6344 129.833 60.4868 129.112C61.3393 128.39 61.8182 127.412 61.8182 126.392V34.0843C61.8182 33.0642 61.3393 32.0859 60.4868 31.3646C59.6344 30.6433 58.4783 30.2381 57.2727 30.2381ZM80 45.6227C78.7945 45.6227 77.6383 46.0279 76.7859 46.7492C75.9334 47.4705 75.4545 48.4488 75.4545 49.4689V111.007C75.4545 112.027 75.9334 113.006 76.7859 113.727C77.6383 114.448 78.7945 114.853 80 114.853C81.2055 114.853 82.3617 114.448 83.2141 113.727C84.0666 113.006 84.5455 112.027 84.5455 111.007V49.4689C84.5455 48.4488 84.0666 47.4705 83.2141 46.7492C82.3617 46.0279 81.2055 45.6227 80 45.6227ZM102.727 61.0073C101.522 61.0073 100.366 61.4125 99.5131 62.1338C98.6607 62.8551 98.1818 63.8334 98.1818 64.8535V95.6227C98.1818 96.6428 98.6607 97.6211 99.5131 98.3424C100.366 99.0637 101.522 99.4689 102.727 99.4689C103.933 99.4689 105.089 99.0637 105.941 98.3424C106.794 97.6211 107.273 96.6428 107.273 95.6227V64.8535C107.273 63.8334 106.794 62.8551 105.941 62.1338C105.089 61.4125 103.933 61.0073 102.727 61.0073ZM125.455 53.315C124.249 53.315 123.093 53.7202 122.24 54.4415C121.388 55.1628 120.909 56.1411 120.909 57.1612V103.315C120.909 104.335 121.388 105.313 122.24 106.035C123.093 106.756 124.249 107.161 125.455 107.161C126.66 107.161 127.816 106.756 128.669 106.035C129.521 105.313 130 104.335 130 103.315V57.1612C130 56.1411 129.521 55.1628 128.669 54.4415C127.816 53.7202 126.66 53.315 125.455 53.315Z" fill="#7F22FE"/>
</svg>
